<?xml version="1.0" standalone="no"?>
<!DOCTYPE svg PUBLIC "-//W3C//DTD SVG 20010904//EN"
 "http://www.w3.org/TR/2001/REC-SVG-20010904/DTD/svg10.dtd">
<svg version="1.0" xmlns="http://www.w3.org/2000/svg"
 width="512.000000pt" height="512.000000pt" viewBox="0 0 512.000000 512.000000"
 preserveAspectRatio="xMidYMid meet">
<metadata>
Created by potrace 1.14, written by Peter Selinger 2001-2017
</metadata>
<g transform="translate(0.000000,512.000000) scale(0.100000,-0.100000)"
fill="#000000" stroke="none">
<path d="M1697 5078 c-24 -37 -28 -51 -25 -98 5 -65 26 -99 81 -131 81 -45
195 -1 226 87 17 49 2 133 -28 163 -19 19 -33 21 -124 21 l-103 0 -27 -42z"/>
<path d="M2027 5103 c-29 -106 -9 -162 76 -213 59 -37 138 -19 192 42 30 34
42 92 31 152 l-7 36 -144 0 c-128 0 -144 -2 -148 -17z"/>
<path d="M2379 5093 c-31 -83 -18 -153 39 -198 29 -24 49 -30 98 -33 57 -4 63
-2 96 27 65 57 86 142 51 202 l-17 29 -128 0 -128 0 -11 -27z"/>
<path d="M2795 5093 c-48 -12 -94 -81 -97 -144 -2 -50 37 -122 77 -143 50 -27
122 -26 169 3 42 26 75 86 76 137 0 52 -40 118 -87 143 -21 11 -99 13 -138 4z"/>
<path d="M1430 5043 c-30 -12 -80 -75 -90 -114 -9 -34 -8 -50 6 -90 36 -99
150 -134 242 -76 23 15 42 34 42 41 0 8 5 16 12 18 8 3 12 27 13 64 0 51 -4
66 -28 97 -15 20 -41 44 -57 52 -28 15 -110 19 -140 8z"/>
<path d="M3108 4963 c-21 -9 -38 -20 -38 -25 0 -5 -9 -18 -20 -30 -25 -27 -35
-97 -20 -142 15 -47 81 -103 128 -109 44 -5 104 18 145 57 42 39 49 122 16
182 -40 74 -127 101 -211 67z"/>
<path d="M1140 4896 c-51 -16 -74 -35 -99 -83 -26 -53 -27 -88 -1 -141 49
-101 183 -117 261 -31 70 75 59 172 -27 231 -48 32 -88 39 -134 24z"/>
<path d="M2140 4813 c-15 -6 -29 -17 -60 -44 -39 -36 -34 -137 10 -180 42 -41
107 -51 159 -24 59 30 92 141 56 188 -41 54 -112 80 -165 60z"/>
<path d="M2408 4787 c-21 -12 -38 -27 -38 -33 0 -6 -7 -17 -15 -24 -23 -19
-19 -91 8 -131 24 -35 77 -68 112 -68 31 0 86 31 109 62 24 33 29 110 8 148
-16 29 -87 69 -122 69 -14 -1 -42 -11 -62 -23z"/>
<path d="M3425 4792 c-88 -31 -136 -159 -87 -234 49 -75 145 -100 220 -58 43
24 82 90 82 138 0 42 -35 104 -72 129 -36 24 -109 37 -143 25z"/>
<path d="M1807 4746 c-33 -29 -39 -41 -44 -89 -5 -52 -4 -56 31 -94 40 -45 89
-59 144 -44 97 28 124 158 48 228 -31 29 -43 33 -88 33 -46 0 -58 -5 -91 -34z"/>
<path d="M2710 4732 c-29 -13 -57 -37 -68 -59 -14 -26 -16 -92 -3 -125 15 -39
69 -72 121 -72 57 -1 93 24 121 83 18 38 19 50 10 80 -13 41 -37 73 -68 90
-23 12 -89 14 -113 3z"/>
<path d="M834 4690 c-11 -4 -35 -23 -53 -41 -26 -26 -34 -43 -38 -84 -7 -64
14 -113 65 -152 31 -24 46 -28 96 -28 38 1 61 5 64 13 2 7 10 12 17 12 22 0
64 58 71 97 8 43 -10 119 -34 146 -36 40 -133 59 -188 37z"/>
<path d="M1567 4693 c-11 -3 -32 -19 -48 -36 -24 -28 -28 -40 -29 -91 0 -56 2
-61 40 -98 31 -29 49 -38 76 -38 86 0 144 55 144 136 0 50 -32 114 -57 114 -7
0 -13 5 -13 10 0 10 -78 12 -113 3z"/>
<path d="M2980 4632 c-59 -28 -80 -62 -80 -131 0 -44 5 -56 33 -86 77 -84 210
-41 233 74 8 37 -20 95 -58 123 -31 22 -102 33 -128 20z"/>
<path d="M1307 4564 c-45 -24 -70 -55 -77 -93 -14 -82 21 -138 100 -162 116
-35 209 115 133 213 -43 55 -103 71 -156 42z"/>
<path d="M2155 4508 c-33 -10 -75 -66 -75 -98 0 -12 7 -34 15 -50 45 -87 149
-94 197 -13 27 45 28 58 4 111 -25 56 -72 73 -141 50z"/>
<path d="M2401 4503 c-18 -8 -47 -37 -60 -62 -31 -57 7 -142 68 -156 42 -9
103 11 125 41 19 26 25 82 12 119 -14 42 -102 77 -145 58z"/>
<path d="M1910 4476 c-35 -17 -48 -31 -58 -60 -34 -105 73 -195 162 -137 81
54 72 158 -16 201 -23 11 -42 20 -42 20 -1 0 -21 -11 -46 -24z"/>
<path d="M3255 4483 c-52 -11 -77 -28 -96 -64 -25 -49 -24 -78 3 -128 56 -105
201 -93 242 20 11 33 14 54 7 66 -5 10 -14 30 -19 45 -18 44 -84 73 -137 61z"/>
<path d="M576 4437 c-42 -24 -86 -97 -86 -143 0 -14 12 -48 26 -75 33 -59 86
-85 160 -76 56 6 91 30 121 83 27 47 28 66 7 132 -14 41 -23 53 -55 68 -21 11
-39 22 -39 27 0 17 -96 6 -134 -16z"/>
<path d="M2624 4442 c-17 -11 -38 -36 -48 -56 -62 -131 139 -223 205 -94 23
45 23 56 4 95 -33 67 -103 91 -161 55z"/>
<path d="M1653 4396 c-15 -13 -34 -40 -41 -59 -11 -32 -11 -40 8 -76 26 -52
50 -64 116 -59 41 4 58 10 73 29 42 50 37 109 -14 162 -35 36 -100 38 -142 3z"/>
<path d="M1055 4391 c-32 -18 -75 -84 -75 -114 0 -33 41 -104 68 -117 15 -7
35 -16 44 -21 19 -10 40 -6 88 14 38 17 80 78 80 118 0 45 -33 97 -76 118 -49
25 -89 26 -129 2z"/>
<path d="M2847 4349 c-15 -11 -34 -36 -43 -55 -15 -30 -15 -40 -4 -75 15 -45
22 -52 71 -69 74 -27 149 26 149 106 0 36 -6 48 -37 79 -43 42 -94 48 -136 14z"/>
<path d="M1480 4311 c-77 -19 -109 -87 -76 -165 11 -26 24 -37 59 -49 41 -14
48 -14 85 3 69 31 92 104 50 161 -18 24 -84 65 -92 58 0 -1 -12 -4 -26 -8z"/>
<path d="M2181 4249 c-70 -15 -93 -91 -45 -148 20 -25 34 -31 64 -31 43 0 90
31 90 61 0 31 16 22 35 -20 18 -40 36 -51 91 -51 76 0 116 107 59 160 -34 32
-106 34 -134 3 -12 -12 -21 -29 -21 -37 0 -28 -19 -27 -26 1 -4 15 -11 33 -16
40 -15 19 -61 30 -97 22z"/>
<path d="M1959 4224 c-15 -10 -34 -34 -43 -54 -15 -34 -15 -40 0 -69 16 -31
59 -61 89 -61 27 0 69 30 83 58 19 40 15 69 -15 102 -34 37 -79 46 -114 24z"/>
<path d="M3048 4217 c-53 -45 -62 -100 -26 -153 51 -74 171 -60 199 23 15 46
5 91 -28 125 -35 37 -104 39 -145 5z"/>
<path d="M2577 4200 c-46 -14 -68 -48 -64 -97 5 -51 37 -82 84 -83 54 0 82 19
94 64 13 49 -7 101 -47 116 -29 11 -29 11 -67 0z"/>
<path d="M854 4190 c-49 -20 -83 -96 -70 -157 17 -74 111 -121 183 -91 54 23
78 64 78 131 0 55 -2 61 -37 93 -32 29 -45 34 -85 33 -27 0 -58 -4 -69 -9z"/>
<path d="M373 4157 c-32 -18 -70 -73 -77 -112 -7 -38 9 -115 24 -115 6 0 10
-6 10 -12 0 -7 17 -24 38 -37 79 -52 186 -21 227 66 37 77 1 186 -69 212 -39
15 -126 13 -153 -2z"/>
<path d="M1254 4160 c-48 -19 -74 -86 -58 -146 6 -24 79 -74 107 -74 31 0 95
41 101 64 9 34 7 93 -5 119 -19 42 -90 60 -145 37z"/>
<path d="M1743 4146 c-22 -19 -28 -32 -27 -65 2 -47 16 -69 58 -86 63 -27 126
17 126 87 0 81 -93 119 -157 64z"/>
<path d="M2748 4119 c-27 -14 -40 -29 -47 -55 -29 -107 111 -173 169 -79 26
42 25 74 -3 106 -34 41 -75 50 -119 28z"/>
<path d="M1593 4078 c-39 -10 -53 -32 -55 -88 -3 -83 93 -124 156 -65 29 26
35 75 15 119 -14 30 -70 46 -116 34z"/>
<path d="M2179 4023 c-9 -2 -25 -23 -37 -46 -16 -31 -22 -37 -22 -20 0 26 -35
53 -70 53 -38 0 -68 -26 -75 -64 l-7 -33 -25 23 c-38 35 -58 38 -97 12 -34
-22 -41 -38 -36 -81 1 -17 0 -17 -19 2 -25 25 -83 28 -105 5 -20 -19 -30 -57
-23 -90 4 -23 3 -23 -13 -9 -28 25 -85 19 -109 -11 -24 -30 -26 -55 -10 -86
10 -18 9 -20 -7 -14 -22 9 -22 9 -56 7 -34 -1 -68 -37 -68 -72 0 -30 32 -75
60 -84 26 -8 90 23 91 44 0 9 2 25 4 36 2 10 -1 26 -8 33 -10 12 -5 13 30 8
24 -5 50 -3 61 3 24 13 45 70 36 94 -7 18 11 24 21 7 10 -16 72 -12 90 7 23
22 36 59 28 80 -6 17 -5 17 13 1 27 -24 114 -29 114 -7 0 6 7 17 15 25 8 9 15
25 15 36 0 20 2 19 25 -6 39 -42 103 -30 125 23 13 32 30 42 30 17 0 -7 6 -19
13 -25 18 -14 87 -23 87 -11 0 6 6 10 14 10 16 0 26 30 26 77 0 49 -47 73
-111 56z"/>
<path d="M2915 4009 c-40 -31 -45 -39 -45 -76 0 -46 42 -93 85 -93 73 0 114
46 101 113 -13 68 -87 97 -141 56z"/>
<path d="M2321 3991 c-29 -40 -26 -72 7 -104 35 -34 71 -34 106 -2 30 28 35
73 10 110 -13 20 -25 25 -59 25 -37 0 -47 -5 -64 -29z"/>
<path d="M1135 4004 c-5 -1 -23 -5 -38 -9 -49 -10 -77 -50 -77 -110 0 -54 15
-77 69 -105 31 -16 87 -5 118 24 30 28 41 93 23 136 -12 30 -73 71 -95 64z"/>
<path d="M2525 3983 c-58 -14 -76 -90 -30 -133 19 -18 31 -22 61 -17 20 3 42
14 49 24 12 17 14 16 21 -12 14 -58 32 -75 79 -75 46 0 60 10 70 53 11 41 -2
75 -35 92 -40 20 -60 19 -87 -7 l-23 -21 0 21 c0 25 -37 69 -65 75 -11 2 -29
2 -40 0z"/>
<path d="M660 3931 c-44 -38 -45 -40 -45 -101 0 -47 4 -65 18 -74 9 -7 17 -17
17 -22 0 -5 21 -18 46 -28 41 -17 51 -17 83 -6 114 40 137 180 41 244 -59 39
-104 35 -160 -13z"/>
<path d="M1420 3962 c0 -5 -11 -15 -25 -22 -21 -11 -25 -21 -25 -59 0 -87 81
-130 151 -80 26 18 29 26 29 74 0 48 -3 56 -29 74 -28 21 -101 29 -101 13z"/>
<path d="M213 3840 c-38 -22 -73 -89 -73 -137 0 -45 31 -103 72 -133 50 -37
131 -36 179 4 44 36 68 81 69 127 0 57 -38 121 -89 148 -33 18 -122 13 -158
-9z"/>
<path d="M2177 3822 c-10 -10 -18 -29 -18 -43 -1 -19 -2 -20 -6 -5 -7 26 -43
55 -69 56 -27 0 -64 -35 -64 -61 0 -18 -2 -19 -15 -5 -23 23 -52 28 -77 15
-30 -16 -38 -28 -38 -62 0 -26 -1 -27 -16 -13 -8 9 -32 16 -53 16 -31 0 -40
-5 -49 -25 -17 -36 -15 -48 9 -79 36 -46 109 -23 109 34 0 28 1 29 28 14 15
-7 32 -14 38 -14 21 0 64 42 64 62 l0 21 23 -21 c13 -12 31 -22 40 -22 25 0
67 30 67 46 0 11 8 9 29 -7 37 -27 93 -20 109 14 8 17 11 18 11 5 2 -38 93
-56 117 -23 14 18 14 18 14 -1 0 -49 111 -68 124 -20 10 38 6 73 -10 86 -22
19 -70 16 -94 -5 -16 -15 -20 -15 -20 -3 0 20 -42 58 -64 58 -10 0 -31 -13
-47 -29 -16 -16 -29 -24 -29 -17 0 41 -83 61 -113 28z"/>
<path d="M2791 3814 c-60 -77 37 -179 107 -114 26 25 30 85 6 118 -23 33 -86
31 -113 -4z"/>
<path d="M1258 3805 c-35 -33 -42 -108 -12 -131 23 -18 16 -23 -20 -13 -43 12
-69 2 -100 -39 -32 -44 -27 -87 14 -124 17 -16 39 -28 51 -28 36 0 78 29 95
66 16 34 16 38 1 64 -21 35 -21 42 1 39 74 -7 122 29 122 91 0 82 -95 129
-152 75z"/>
<path d="M941 3793 c-47 -19 -82 -104 -60 -145 45 -84 131 -97 190 -30 28 32
31 40 26 85 -6 63 -42 96 -102 96 -22 0 -46 -3 -54 -6z"/>
<path d="M2585 3735 c-32 -33 -32 -59 1 -91 28 -29 68 -27 92 4 12 15 13 13 8
-14 -15 -70 70 -113 114 -57 42 53 5 108 -66 99 l-42 -5 -6 38 c-4 29 -12 40
-28 45 -37 10 -46 7 -73 -19z"/>
<path d="M562 3694 c-51 -26 -77 -70 -76 -129 1 -161 238 -173 260 -13 8 58
-7 97 -48 128 -40 29 -94 35 -136 14z"/>
<path d="M2203 3673 c-7 -2 -13 -11 -13 -19 0 -19 -26 -18 -34 1 -12 33 -86 7
-86 -31 0 -13 -4 -12 -29 1 -39 20 -79 3 -87 -37 -1 -5 -2 -10 -3 -12 0 -3
-15 -1 -32 4 -24 7 -34 5 -50 -11 -10 -10 -19 -26 -19 -34 0 -9 -10 -15 -26
-15 -42 0 -64 -18 -64 -50 0 -26 -4 -30 -26 -30 -33 0 -67 -37 -60 -65 4 -15
-3 -24 -27 -35 -37 -17 -51 -57 -30 -81 12 -14 10 -17 -14 -22 -42 -9 -58 -40
-39 -78 9 -18 10 -29 4 -29 -13 0 -48 -39 -48 -54 0 -6 7 -22 16 -34 14 -21
14 -24 -4 -40 -34 -29 -36 -57 -6 -81 l28 -22 -22 -15 c-25 -17 -28 -50 -8
-76 13 -18 50 -23 80 -12 22 8 21 73 0 89 -15 11 -15 14 1 38 19 30 14 74 -11
84 -12 4 -10 8 8 17 19 10 23 20 23 58 0 37 5 50 25 66 22 18 24 23 14 50 -11
28 -10 31 12 36 27 7 48 40 41 66 -3 13 3 19 24 24 17 3 29 12 29 21 0 8 5 15
11 15 7 0 9 10 7 25 -5 23 -2 25 27 25 28 0 35 5 44 31 6 17 8 35 5 40 -3 5
-1 9 5 9 5 0 13 -4 16 -10 12 -19 45 -10 67 20 17 24 29 30 59 30 30 0 39 5
45 23 5 12 7 25 6 29 -1 4 12 -1 30 -12 31 -19 32 -19 61 2 24 17 33 19 53 9
33 -15 72 -4 80 21 6 19 7 19 18 -3 13 -28 59 -37 82 -18 16 13 26 5 37 -26 2
-5 24 -10 49 -9 36 1 46 -3 54 -20 11 -25 58 -33 81 -14 14 11 15 10 9 -9 -15
-48 62 -83 97 -45 37 41 15 87 -42 87 -31 0 -41 3 -41 16 0 35 -68 66 -85 39
-10 -16 -25 -11 -25 9 0 37 -71 66 -88 36 -8 -15 -12 -14 -35 9 -31 31 -60 33
-87 6 -19 -19 -20 -19 -30 0 -10 19 -47 26 -77 13z"/>
<path d="M1698 3642 c-32 -4 -62 -56 -47 -83 8 -16 4 -18 -31 -17 -22 0 -47
-5 -55 -12 -18 -15 -20 -86 -2 -94 6 -3 0 -3 -14 0 -19 4 -35 -2 -57 -21 -36
-30 -38 -39 -18 -77 13 -25 13 -28 -2 -28 -36 0 -62 -29 -62 -69 0 -25 5 -41
15 -45 8 -3 15 -10 15 -15 0 -6 -6 -8 -12 -6 -7 3 -26 -7 -41 -21 -23 -21 -27
-32 -22 -53 3 -14 12 -31 18 -38 16 -16 68 -19 92 -6 25 14 26 74 2 101 -17
19 -17 20 16 26 28 5 36 12 41 37 4 19 0 42 -10 62 -10 19 -11 27 -4 20 10 -9
19 -8 39 5 14 9 29 21 33 27 12 16 9 60 -4 73 -10 10 -6 11 19 6 24 -5 35 -1
52 17 23 25 28 68 9 87 -9 9 -9 12 0 12 7 0 12 -4 12 -10 0 -19 56 -10 77 13
23 25 36 57 24 57 -5 0 -11 9 -14 19 -6 24 -34 38 -69 33z"/>
<path d="M854 3580 c-71 -15 -106 -98 -70 -165 27 -49 70 -64 143 -49 34 7 73
64 73 106 0 64 -79 122 -146 108z"/>
<path d="M2218 3553 c-10 -2 -18 -13 -18 -24 0 -19 -1 -19 -16 -5 -22 23 -60
20 -78 -6 -12 -17 -18 -19 -30 -9 -21 17 -51 6 -64 -25 -10 -21 -15 -23 -33
-14 -23 13 -44 1 -54 -31 -4 -12 -16 -19 -31 -19 -32 0 -58 -25 -51 -50 4 -16
0 -20 -22 -20 -31 0 -58 -37 -48 -64 4 -11 1 -16 -12 -16 -24 0 -53 -33 -46
-52 4 -10 -4 -27 -20 -42 -27 -27 -27 -61 -1 -78 6 -5 2 -8 -10 -8 -30 0 -47
-41 -28 -68 11 -17 11 -21 0 -25 -7 -3 -16 -17 -20 -32 -5 -20 -2 -31 14 -45
18 -15 18 -19 5 -30 -19 -16 -19 -56 0 -64 12 -4 14 -15 9 -44 -5 -34 -3 -42
21 -60 15 -12 23 -22 17 -22 -7 0 -8 -10 -1 -32 10 -35 27 -50 48 -43 10 4 11
2 5 -7 -21 -30 -1 -78 33 -78 19 0 23 -4 18 -19 -6 -19 12 -45 37 -54 10 -3 9
-12 -3 -38 -10 -19 -31 -65 -49 -104 -18 -38 -34 -72 -36 -74 -11 -12 -34 38
-33 69 2 43 -9 70 -27 70 -14 0 -53 70 -79 141 l-13 36 31 1 c17 0 27 -2 21
-6 -38 -26 -14 -92 34 -92 26 0 28 -2 24 -35 -4 -29 0 -36 21 -46 60 -27 108
23 72 77 -12 18 -23 25 -39 22 -19 -4 -22 -1 -18 18 6 34 -14 62 -48 66 -29 3
-29 4 -16 29 12 23 11 28 -10 54 -15 18 -28 26 -39 22 -14 -6 -14 -4 1 23 16
25 16 32 4 55 -11 20 -21 25 -51 25 -42 0 -52 -10 -51 -51 0 -16 0 -29 -2 -29
-1 0 -22 18 -46 40 -24 22 -39 40 -32 40 16 0 34 47 27 69 -3 9 -20 26 -37 39
-20 13 -26 22 -17 22 23 0 49 33 49 62 0 29 -38 68 -66 68 -29 0 -64 -36 -64
-66 0 -33 17 -64 35 -64 21 0 19 -9 -7 -29 -39 -32 -17 -121 30 -121 13 0 13
-2 -2 -13 -12 -9 -18 -26 -18 -49 0 -44 7 -57 37 -68 21 -8 23 -12 14 -42 -12
-43 -4 -65 32 -83 25 -13 29 -21 29 -55 0 -28 6 -43 21 -53 21 -15 69 -97 69
-117 0 -7 -7 -5 -16 4 -18 18 -47 20 -75 6 -20 -11 -28 3 -9 15 6 3 10 23 10
44 0 49 -26 73 -79 75 -26 0 -35 4 -26 9 20 11 29 70 15 96 -15 28 -56 44 -96
36 -77 -14 -67 -146 12 -153 35 -3 36 -4 26 -33 -21 -54 20 -118 72 -114 34 3
34 3 29 -34 -4 -33 -1 -43 26 -70 25 -25 36 -30 58 -25 32 7 87 60 78 74 -4 6
-2 10 3 10 5 0 14 -18 21 -39 8 -27 19 -42 35 -48 l25 -8 -35 -72 -35 -73 -42
0 c-61 0 -82 -8 -99 -38 -35 -60 26 -98 141 -89 57 4 68 9 88 34 13 15 23 31
23 36 0 4 23 54 50 111 28 57 50 106 50 109 0 4 21 50 46 104 26 54 57 121 69
148 13 28 32 71 44 96 22 48 28 131 12 171 -6 13 -26 34 -45 48 -20 14 -36 34
-36 44 0 10 -8 25 -17 32 -11 8 -13 13 -5 14 18 0 15 27 -4 34 -11 4 -14 13
-11 28 4 12 2 27 -2 32 -10 13 9 156 20 156 5 0 9 10 9 21 0 12 7 27 14 33 8
6 16 17 18 25 5 20 51 71 65 71 12 0 17 13 14 33 0 4 10 7 23 7 13 0 26 7 30
15 3 8 16 15 30 15 14 0 28 5 32 11 3 6 17 8 30 5 16 -4 26 -1 33 11 8 14 12
15 25 4 13 -11 19 -11 32 0 13 10 17 10 24 0 5 -9 17 -11 34 -7 15 4 26 2 26
-4 0 -5 13 -10 29 -10 17 0 33 -4 36 -10 3 -5 15 -10 27 -10 11 0 22 -8 25
-20 7 -27 49 -27 58 0 8 27 -1 40 -29 40 -16 0 -26 7 -29 21 -4 16 -12 20 -29
17 -13 -2 -30 2 -37 9 -15 16 -14 18 17 27 16 6 22 3 22 -8 0 -17 42 -32 59
-22 5 4 11 -4 13 -16 4 -31 52 -38 67 -9 6 11 8 26 5 34 -6 17 -49 31 -64 22
-6 -4 -10 3 -10 14 0 20 -32 37 -50 26 -6 -4 -19 4 -30 17 -16 20 -21 21 -39
11 -26 -16 -31 -16 -31 1 0 21 -42 28 -61 10 -15 -13 -17 -13 -22 1 -8 20 -41
19 -63 -2 -13 -13 -19 -14 -22 -5 -6 20 -46 14 -61 -9 -10 -17 -15 -19 -21 -9
-11 19 -60 -3 -60 -26 0 -11 -5 -14 -16 -10 -26 10 -54 -3 -54 -25 0 -16 -3
-18 -19 -10 -16 9 -21 5 -35 -24 -10 -21 -25 -35 -39 -37 -15 -2 -23 -11 -25
-28 -2 -15 -12 -30 -25 -35 -16 -7 -22 -19 -22 -42 0 -18 -5 -33 -11 -33 -6 0
-17 -7 -25 -16 -10 -12 -10 -20 -1 -35 10 -15 8 -20 -8 -29 -21 -11 -27 -44
-10 -55 6 -3 10 -11 10 -16 0 -6 -4 -8 -9 -5 -12 8 -21 -46 -10 -60 4 -5 6
-26 3 -46 -4 -20 -2 -38 4 -42 6 -3 8 -21 5 -40 -4 -28 -2 -34 17 -39 13 -3
19 -10 15 -17 -12 -19 4 -57 27 -63 16 -5 19 -9 10 -19 -14 -17 8 -48 34 -48
14 0 19 -8 20 -29 1 -26 -1 -29 -21 -21 -13 5 -26 6 -30 2 -4 -4 -4 3 0 16 8
28 -18 62 -49 63 -12 0 -15 3 -8 6 20 8 14 40 -12 60 -18 14 -22 26 -19 50 4
23 0 34 -17 46 -19 13 -20 16 -5 31 15 15 15 18 -6 47 -16 23 -19 33 -9 39 14
8 17 47 6 73 -6 12 -4 17 8 17 18 0 23 54 6 65 -17 10 -11 25 10 25 20 0 25
13 22 55 -1 12 7 24 20 30 16 7 24 20 26 41 2 22 11 35 28 42 14 7 24 20 24
32 0 15 8 22 30 27 30 5 56 34 43 47 -3 3 7 6 24 6 29 0 55 19 66 50 3 9 6 10
6 3 1 -21 45 -15 59 8 9 13 19 18 32 14 28 -9 70 5 70 24 1 14 2 14 14 -1 16
-22 49 -23 70 -3 13 14 16 13 24 -1 7 -13 18 -16 47 -11 27 4 42 2 53 -9 9
-10 27 -14 43 -12 21 3 30 0 34 -13 7 -22 38 -33 65 -24 11 4 20 3 19 -2 -6
-37 2 -44 44 -41 35 3 43 7 45 26 5 35 -24 62 -59 55 -26 -5 -29 -3 -29 21 0
24 -3 26 -40 26 -29 0 -43 5 -52 20 -16 25 -63 27 -77 3 -9 -16 -10 -16 -11 3
0 28 -44 41 -73 21 -18 -12 -23 -11 -39 5 -18 18 -21 19 -50 11z m5 -198 c-9
-7 -26 -10 -39 -7 -16 3 -26 -1 -30 -12 -4 -11 -13 -14 -29 -10 -13 3 -28 -1
-37 -9 -19 -20 -38 -8 -27 18 4 11 8 14 8 8 1 -19 19 -16 43 6 15 14 29 18 49
14 21 -4 30 -1 35 10 5 13 9 14 24 5 17 -11 17 -13 3 -23z m111 17 c40 4 57
-15 27 -32 -14 -7 -20 -6 -25 6 -4 11 -14 14 -33 10 -16 -3 -35 -2 -43 4 -13
8 -12 10 3 10 9 0 17 6 17 13 0 9 3 8 9 -2 6 -9 21 -12 45 -9z m-294 -68 c0
-18 -22 -42 -35 -38 -9 4 -19 -3 -26 -19 -6 -14 -20 -28 -30 -30 -11 -3 -19
-14 -19 -26 0 -11 -9 -25 -20 -31 -11 -6 -20 -19 -20 -30 0 -11 -9 -24 -20
-30 -12 -6 -20 -7 -20 -1 0 5 -3 16 -6 24 -3 10 4 17 21 21 22 6 26 11 22 31
-3 19 0 25 13 25 18 0 35 25 31 48 -1 7 9 12 23 12 19 0 27 7 32 25 4 18 13
25 30 25 13 0 24 -3 24 -6z m-188 -264 c-7 -11 -10 -31 -6 -45 7 -29 -22 -48
-37 -24 -12 20 -11 29 5 29 7 0 16 11 18 25 4 18 1 25 -10 25 -13 0 -12 3 4
14 25 19 43 3 26 -24z m-5 -184 c2 -32 8 -65 14 -72 6 -8 9 -20 6 -28 -3 -8 3
-22 14 -32 25 -22 25 -44 0 -37 -12 3 -17 11 -14 23 3 12 -3 23 -15 31 -16 10
-19 20 -15 45 4 26 2 33 -17 39 -19 6 -20 8 -7 23 13 14 13 21 3 41 -8 13 -11
33 -8 43 4 18 5 18 21 1 10 -11 17 -39 18 -77z"/>
<path d="M160 3532 c-61 -10 -120 -88 -120 -160 0 -61 43 -126 98 -149 86 -36
201 25 216 115 6 43 -3 112 -15 112 -5 0 -9 6 -9 14 0 35 -107 79 -170 68z"/>
<path d="M1332 3520 c-28 -27 -31 -104 -4 -119 14 -9 12 -10 -13 -11 -43 0
-85 -42 -85 -84 0 -73 95 -105 138 -46 28 38 28 76 0 102 l-23 19 27 -5 c19
-4 35 1 57 20 37 31 40 64 11 112 -16 26 -26 32 -53 32 -20 0 -42 -8 -55 -20z"/>
<path d="M1045 3450 c-37 -38 -39 -89 -6 -124 l23 -25 -41 -20 c-47 -24 -61
-46 -61 -94 0 -71 95 -112 152 -67 51 40 41 131 -16 156 l-31 13 31 1 c100 1
150 112 77 170 -39 31 -93 26 -128 -10z"/>
<path d="M496 3418 c-59 -13 -95 -59 -96 -122 0 -63 32 -107 94 -131 44 -17
46 -17 91 5 26 13 52 34 60 51 17 33 20 108 4 141 -23 50 -84 72 -153 56z"/>
<path d="M794 3352 c-18 -2 -43 -15 -58 -31 -75 -78 -34 -191 69 -191 63 0
103 24 111 66 10 56 -2 105 -33 130 -32 26 -46 30 -89 26z"/>
<path d="M1230 3223 c-26 -11 -49 -47 -50 -79 0 -30 28 -66 60 -76 8 -3 -2 -8
-22 -12 -21 -4 -38 -12 -38 -18 0 -6 -8 -20 -17 -30 -16 -18 -16 -21 1 -51 10
-18 26 -38 34 -44 9 -7 11 -13 4 -13 -6 0 -17 8 -24 18 -7 11 -23 24 -35 31
-17 9 -23 21 -23 45 0 49 -46 96 -94 96 -45 0 -96 -48 -96 -91 0 -30 -29 -43
-31 -14 -2 23 -4 28 -23 67 -14 30 -27 40 -60 49 -101 27 -181 -59 -141 -154
11 -27 12 -36 2 -40 -18 -6 -15 -158 3 -194 18 -35 44 -59 81 -75 34 -15 37
-24 10 -33 -51 -16 -54 -140 -5 -181 38 -31 113 -33 139 -4 18 20 18 20 37 1
10 -11 18 -21 18 -23 0 -2 -20 -4 -44 -4 -35 -2 -51 -8 -70 -29 -15 -16 -27
-37 -28 -49 -2 -39 4 -81 14 -93 8 -10 5 -13 -9 -13 -25 0 -43 19 -43 45 0 32
-30 52 -67 44 -18 -3 -36 -2 -42 4 -8 8 -11 7 -11 -1 0 -7 -10 -12 -23 -12
-27 0 -66 -34 -91 -82 -17 -31 -18 -42 -8 -75 6 -21 22 -51 35 -67 21 -26 32
-30 89 -34 58 -4 67 -1 95 22 27 23 40 26 101 26 65 0 70 -2 76 -24 3 -13 21
-40 39 -60 28 -30 40 -36 75 -36 29 0 50 7 67 22 32 28 55 73 50 97 -5 29 30
55 72 53 77 -6 137 75 102 137 -21 37 -73 63 -105 51 -30 -12 -54 -13 -38 -2
38 26 55 92 34 132 -13 25 -73 58 -90 50 -8 -4 -25 -12 -38 -19 -25 -13 -63 0
-61 22 0 9 2 9 6 0 8 -22 47 -14 86 18 31 25 37 37 37 67 -1 52 -36 92 -87 99
-33 4 -44 1 -63 -18 -12 -13 -28 -37 -35 -53 l-12 -28 -40 52 c-37 48 -40 56
-31 87 7 28 5 40 -11 67 -12 18 -21 36 -21 40 0 3 18 6 40 6 43 0 45 -2 30
-29 -11 -22 20 -95 45 -105 40 -15 94 -6 118 20 21 22 31 25 63 21 32 -4 69
-12 81 -16 1 -1 -9 -13 -22 -27 -75 -80 35 -185 112 -108 21 21 24 32 19 62
-6 37 -34 68 -71 75 -19 4 -19 5 2 12 15 5 25 18 29 41 9 51 -7 86 -47 99
l-34 12 37 16 c59 25 61 91 4 139 l-21 17 22 1 c28 0 63 45 63 79 -1 49 -64
92 -110 74z m-137 -1000 c7 -10 -2 -13 -38 -13 -46 0 -47 1 -32 18 10 10 17
29 17 42 0 25 -5 29 53 -47z"/>
<path d="M95 3176 c-61 -27 -78 -52 -83 -116 -2 -33 -1 -75 2 -94 10 -50 59
-86 128 -92 116 -11 187 77 164 201 -17 89 -124 140 -211 101z"/>
<path d="M4745 3175 c-50 -23 -71 -48 -88 -101 -15 -47 -15 -54 2 -98 10 -26
30 -58 45 -71 31 -27 98 -41 149 -31 55 10 117 92 117 156 0 34 -29 93 -60
122 -40 37 -113 48 -165 23z"/>
<path d="M2298 3156 c-28 -21 -22 -53 12 -65 17 -5 30 -15 30 -20 0 -14 -6
-14 -30 1 -25 16 -35 5 -20 -21 20 -38 80 -24 80 18 0 20 -7 31 -25 39 -25 11
-34 32 -15 32 6 0 10 -4 10 -10 0 -5 7 -10 15 -10 22 0 19 27 -4 40 -25 13
-32 12 -53 -4z"/>
<path d="M4050 3155 c0 -8 7 -15 15 -15 8 0 15 7 15 15 0 8 -7 15 -15 15 -8 0
-15 -7 -15 -15z"/>
<path d="M2937 3153 c-4 -3 -7 -28 -7 -54 0 -49 13 -70 32 -51 7 7 16 7 30 -1
15 -10 20 -9 27 2 7 11 9 11 13 0 5 -12 9 -12 27 -1 18 10 22 10 27 -3 13 -33
69 -7 77 35 l4 25 2 -26 c1 -25 17 -49 33 -49 5 0 5 17 2 39 -4 24 -2 41 5 45
8 5 7 12 -3 22 -20 20 -31 18 -45 -8 -6 -13 -9 -15 -7 -6 4 14 0 17 -24 14
-16 -2 -36 -9 -44 -15 -11 -9 -15 -8 -20 4 -4 11 -2 14 7 10 6 -4 3 1 -7 9
-29 23 -35 20 -55 -26 l-18 -42 -7 29 c-11 45 -32 65 -49 48z m189 -80 c-7
-17 -8 -17 -22 1 -11 16 -11 21 -2 27 18 11 32 -6 24 -28z"/>
<path d="M3427 3153 c-2 -5 -4 -30 -3 -58 1 -37 5 -50 16 -50 10 0 14 8 12 28
-4 36 2 34 28 -8 26 -42 35 -44 48 -7 7 17 11 21 11 9 1 -9 13 -23 27 -29 23
-11 29 -10 43 9 17 21 18 21 30 1 8 -13 21 -18 39 -16 25 3 27 7 30 51 2 37 0
47 -12 47 -12 0 -16 -10 -16 -35 0 -19 -4 -35 -10 -35 -5 0 -10 16 -10 35 0
40 -30 52 -30 13 -1 -22 -2 -21 -16 5 -17 32 -37 34 -63 8 -20 -20 -20 -20
-23 7 -4 35 -22 34 -28 -2 l-5 -28 -23 31 c-22 31 -37 38 -45 24z"/>
<path d="M4383 3129 c-70 -76 -87 -85 -81 -46 2 16 9 21 25 19 29 -4 38 14 14
27 -22 12 -50 5 -67 -17 -9 -13 -12 -12 -16 4 -5 19 -14 21 -71 15 -12 -1 -4
-91 8 -92 6 0 11 11 13 23 6 46 15 54 21 19 8 -43 31 -54 31 -14 l0 28 16 -32
c18 -35 44 -42 64 -18 12 14 15 14 30 0 34 -31 70 -11 70 40 0 18 -8 37 -19
47 -18 15 -21 15 -38 -3z m34 -65 c-3 -3 -12 -4 -19 -1 -8 3 -5 6 6 6 11 1 17
-2 13 -5z"/>
<path d="M430 3122 c-62 -34 -85 -111 -54 -179 21 -42 46 -60 100 -68 79 -13
154 46 154 121 0 41 -23 94 -51 118 -33 28 -106 32 -149 8z"/>
<path d="M2408 3132 c-37 -8 -34 -85 3 -97 29 -10 49 12 49 55 0 39 -14 50
-52 42z"/>
<path d="M2493 3132 c-20 -3 -23 -9 -23 -48 0 -54 27 -64 32 -11 4 39 20 39
26 0 6 -51 20 -46 24 9 3 57 2 58 -59 50z"/>
<path d="M2581 3131 c-7 -5 -15 -25 -17 -45 -2 -31 2 -39 23 -49 22 -10 28 -8
42 10 17 20 18 20 29 2 26 -40 72 -16 72 38 0 53 -56 68 -81 22 -5 -11 -15
-19 -22 -18 -9 0 -9 2 1 6 14 5 17 33 3 33 -5 0 -15 2 -23 5 -7 3 -19 1 -27
-4z m122 -34 c3 -8 1 -20 -4 -28 -8 -12 -10 -12 -18 0 -10 15 -4 41 9 41 4 0
10 -6 13 -13z"/>
<path d="M2740 3089 c0 -36 4 -49 14 -49 9 0 16 12 18 32 4 42 22 46 38 9 13
-34 13 -47 -2 -43 -5 1 -8 -3 -6 -10 10 -30 38 -19 53 19 9 21 20 46 25 55 13
24 13 28 -4 28 -8 0 -16 -7 -20 -15 -3 -8 -10 -15 -16 -15 -5 0 -10 7 -10 15
0 8 -8 15 -17 16 -10 0 -30 2 -45 4 -27 4 -28 2 -28 -46z"/>
<path d="M3242 3129 c-40 -15 -21 -99 23 -99 8 0 23 10 35 22 18 19 20 20 20
4 0 -10 6 -16 13 -13 6 2 12 17 12 33 1 19 6 30 18 32 28 6 19 22 -12 22 -23
0 -31 -5 -34 -22 l-4 -23 -8 22 c-8 25 -32 33 -63 22z m34 -55 c-5 -13 -10
-14 -18 -6 -6 6 -8 18 -4 28 5 13 10 14 18 6 6 -6 8 -18 4 -28z"/>
<path d="M3808 3131 c-7 -2 -16 -9 -20 -15 -5 -8 -8 -7 -8 2 0 7 -13 12 -30
12 -29 0 -30 -2 -30 -45 0 -53 24 -63 34 -15 3 17 10 30 15 30 6 0 8 -6 5 -13
-2 -7 6 -23 19 -35 18 -17 31 -21 51 -16 25 6 27 10 24 53 -2 40 -6 46 -25 46
-13 0 -29 -2 -35 -4z m32 -52 c0 -20 -15 -26 -25 -9 -9 15 3 43 15 35 5 -3 10
-15 10 -26z"/>
<path d="M3885 3129 c-4 -12 -3 -47 4 -91 2 -14 34 -8 54 9 18 17 19 17 28 0
14 -24 45 -21 63 5 13 18 16 19 16 5 0 -9 7 -17 15 -17 8 0 15 5 15 12 0 6 9
3 20 -7 17 -15 24 -16 45 -7 25 12 33 49 19 85 -7 20 -54 13 -71 -10 -12 -16
-13 -16 -13 0 0 20 -26 23 -33 5 -4 -10 -6 -10 -6 0 -2 21 -69 15 -81 -8 -6
-11 -16 -20 -23 -19 -9 0 -9 2 1 6 17 7 15 33 -2 33 -8 0 -21 3 -30 6 -9 3
-18 0 -21 -7z m146 -50 c-26 -24 -41 -24 -41 -1 0 26 6 30 36 24 25 -5 25 -5
5 -23z"/>
<path d="M4423 2998 c-13 -6 -23 -15 -23 -19 0 -4 -14 -10 -31 -14 -33 -7 -49
-35 -49 -85 0 -28 0 -28 -30 -14 -49 25 -150 -10 -150 -51 0 -34 -22 -22 -41
22 -12 26 -30 67 -41 91 l-20 43 -77 -3 -76 -3 -3 -162 -2 -162 -25 9 c-30 11
-82 -5 -95 -30 -17 -32 -11 -76 15 -104 13 -14 31 -26 40 -26 8 0 15 -4 15
-10 0 -5 -4 -10 -10 -10 -5 0 -12 -15 -16 -34 -7 -41 12 -74 53 -91 l27 -11
-24 -24 c-30 -30 -31 -82 -1 -114 26 -27 26 -32 1 -58 -37 -40 -19 -113 31
-130 8 -3 -1 -8 -19 -12 -65 -15 -82 -115 -24 -141 31 -14 28 -26 -7 -23 -15
1 -40 -6 -55 -15 -32 -21 -35 -72 -7 -108 l19 -24 -40 0 c-29 0 -44 -6 -57
-23 -18 -25 -20 -67 -3 -98 9 -18 7 -19 -30 -16 -33 4 -44 0 -64 -21 -26 -28
-30 -57 -14 -88 12 -22 7 -24 -19 -7 -15 9 -27 8 -57 -3 -44 -17 -63 -63 -43
-101 12 -22 12 -22 -14 -5 -56 36 -123 11 -135 -52 l-7 -33 -24 21 c-32 28
-53 26 -90 -5 -68 -57 -15 -160 71 -139 29 7 64 61 59 90 -3 19 -2 19 16 2 11
-9 35 -17 56 -17 49 0 77 28 77 77 0 29 3 34 12 25 13 -13 49 -15 85 -6 28 8
47 54 38 93 -7 32 -3 35 30 22 13 -6 33 -2 58 10 33 18 37 23 37 59 0 21 -4
42 -10 45 -22 14 -8 26 23 20 25 -5 39 -1 61 16 25 20 28 27 23 67 -3 24 -11
48 -18 53 -9 6 -2 9 23 9 65 0 104 84 59 129 -19 19 -19 19 9 31 16 7 36 20
45 30 31 34 7 119 -34 120 -9 1 -2 7 14 14 35 16 68 53 60 66 -4 6 -2 10 3 10
5 0 9 8 9 18 -1 9 0 83 1 164 l2 146 31 -15 c34 -17 99 -10 100 10 0 7 5 2 11
-11 12 -23 2 -45 -10 -25 -6 9 -17 9 -45 -1 -50 -17 -66 -35 -74 -79 -5 -33
-2 -41 31 -72 23 -21 48 -35 63 -35 30 0 83 36 83 57 0 28 23 7 37 -33 7 -21
19 -51 27 -65 12 -21 13 -33 4 -62 -9 -30 -8 -43 7 -76 21 -48 58 -66 117 -58
81 11 122 96 78 162 -26 39 -26 102 0 135 25 32 25 56 0 103 -18 33 -20 56
-20 219 l0 183 51 0 c46 0 54 3 90 42 30 32 39 50 39 76 0 63 -11 91 -48 120
-28 22 -45 27 -86 26 -28 0 -61 -5 -73 -11z m-103 -330 c0 -7 -19 -21 -41 -32
-24 -11 -44 -29 -50 -44 l-10 -26 -15 30 c-9 16 -20 39 -25 52 -8 21 -7 22 13
11 25 -13 111 -6 116 10 5 15 12 14 12 -1z m-250 -87 c0 -5 -10 -13 -22 -17
-13 -4 -26 -12 -30 -18 -5 -7 -8 -4 -8 7 0 10 8 17 19 17 11 0 23 5 26 10 8
13 15 13 15 1z m239 -160 c7 -5 10 -14 7 -20 -10 -16 -20 -14 -34 9 -10 16
-10 20 0 20 7 0 19 -4 27 -9z"/>
<path d="M2276 2963 c-3 -4 -6 -197 -6 -429 1 -334 4 -424 14 -433 23 -19 70
-23 91 -7 19 14 20 29 25 347 l5 333 43 -64 c37 -56 46 -82 45 -127 -1 -7 3
-11 7 -8 5 3 12 1 15 -5 4 -6 26 -10 50 -9 24 2 42 6 39 10 -2 4 2 13 9 20 7
7 12 22 10 33 -2 12 15 49 39 86 l43 65 5 -335 5 -334 25 -13 c35 -18 57 -16
80 7 20 20 20 31 18 443 l-3 422 -71 3 c-67 3 -73 1 -92 -22 -10 -14 -21 -23
-24 -21 -3 3 -5 -1 -5 -7 0 -7 -19 -42 -43 -76 -40 -59 -45 -62 -57 -45 -7 10
-20 26 -28 36 -8 9 -15 20 -15 23 0 2 -18 29 -40 59 l-41 55 -68 0 c-37 0 -71
-3 -75 -7z"/>
<path d="M4900 2863 c-92 -31 -131 -79 -132 -158 -1 -71 30 -119 90 -146 54
-23 89 -24 133 -2 67 32 89 69 89 149 0 45 -5 64 -25 90 -36 47 -115 81 -155
67z"/>
<path d="M463 2840 c-60 -14 -92 -68 -85 -142 4 -52 30 -85 86 -112 78 -37
177 34 180 129 1 43 -40 110 -72 119 -41 11 -79 14 -109 6z"/>
<path d="M102 2830 c-63 -27 -99 -99 -87 -177 17 -116 156 -169 251 -96 85 64
83 179 -5 257 -25 22 -121 32 -159 16z"/>
<path d="M4524 2721 c-48 -30 -64 -59 -64 -118 0 -46 4 -57 33 -87 103 -106
262 -16 226 127 -20 82 -124 123 -195 78z"/>
<path d="M3245 2693 c-23 -6 -86 -51 -98 -70 -5 -7 -13 -11 -18 -7 -5 3 -8 2
-7 -3 1 -4 -6 -20 -15 -35 -16 -23 -18 -46 -15 -195 3 -163 4 -170 28 -199 35
-43 106 -94 129 -94 23 0 36 -16 20 -25 -5 -4 -8 -14 -5 -22 3 -8 0 -24 -8
-35 -8 -11 -12 -27 -9 -34 3 -8 -1 -14 -10 -14 -16 0 -30 -26 -22 -40 3 -5 -3
-11 -14 -15 -10 -3 -21 -15 -24 -25 -3 -12 -14 -20 -26 -20 -14 0 -21 -6 -21
-20 0 -14 -7 -20 -24 -20 -13 0 -26 -6 -29 -14 -4 -9 -14 -12 -26 -9 -13 3
-23 0 -27 -11 -4 -11 -13 -14 -29 -10 -13 3 -29 3 -36 -1 -17 -11 -89 -13 -89
-2 0 4 -10 7 -22 6 -13 -1 -31 1 -40 6 -10 4 -25 5 -33 1 -9 -3 -15 0 -15 9 0
7 -13 16 -29 20 -16 3 -32 13 -35 21 -3 8 -14 14 -25 14 -13 0 -21 8 -23 23
-2 14 -11 23 -25 25 -13 2 -20 8 -17 16 7 17 -22 40 -41 32 -22 -8 -19 -53 4
-61 11 -3 21 -16 23 -28 2 -14 11 -23 26 -25 14 -2 22 -10 22 -23 0 -12 7 -19
20 -19 11 0 29 -9 40 -20 11 -11 26 -17 35 -14 8 4 17 -1 21 -10 3 -9 17 -16
29 -16 13 0 30 -3 39 -6 14 -5 14 -8 0 -21 -13 -14 -17 -14 -33 1 -10 9 -27
16 -38 16 -11 0 -26 7 -34 16 -8 10 -22 14 -40 10 -23 -4 -28 -1 -31 17 -2 13
-11 23 -23 25 -12 2 -26 15 -32 32 -6 17 -18 30 -27 30 -9 0 -16 8 -16 20 0
24 -34 43 -60 35 -33 -10 -23 -75 11 -75 14 0 19 -7 19 -25 0 -20 6 -27 28
-31 15 -3 32 -15 37 -27 6 -13 21 -23 38 -25 19 -2 27 -9 27 -23 0 -18 15 -24
49 -19 7 1 20 -8 28 -19 9 -14 24 -21 41 -20 15 1 39 -3 53 -9 19 -7 30 -7 37
0 8 8 18 6 36 -6 24 -15 27 -15 45 3 12 12 23 16 26 11 9 -15 55 -12 61 4 4
11 12 13 30 6 19 -8 28 -5 44 12 11 12 33 22 48 23 20 0 28 6 30 23 2 15 10
22 20 21 28 -3 52 12 52 32 0 14 7 19 25 19 25 0 30 11 27 52 -1 10 2 17 6 17
31 -5 42 3 42 31 0 19 5 30 14 30 15 0 32 53 22 69 -4 5 3 12 14 16 22 7 28
51 8 57 -17 6 0 28 21 28 31 0 43 -24 19 -39 -16 -10 -19 -20 -15 -45 4 -25 1
-35 -15 -45 -16 -10 -19 -20 -15 -47 5 -29 3 -34 -13 -34 -23 0 -42 -32 -34
-54 4 -11 0 -16 -13 -16 -26 0 -43 -19 -43 -47 0 -16 -6 -23 -19 -23 -33 0
-51 -11 -51 -31 0 -14 -7 -19 -29 -19 -18 0 -35 -8 -46 -23 -12 -16 -25 -22
-40 -19 -15 2 -30 -4 -44 -19 -16 -18 -24 -20 -33 -11 -17 17 -31 15 -56 -8
-12 -12 -23 -16 -27 -10 -3 6 -21 10 -40 10 -19 0 -37 -4 -40 -10 -4 -6 -15
-2 -27 10 -20 18 -23 19 -46 4 -22 -14 -24 -14 -29 5 -5 21 -19 26 -57 22 -10
0 -29 10 -42 24 -23 25 -49 25 -67 1 -5 -6 -6 -2 -3 10 8 28 -15 57 -46 57
-19 0 -24 4 -21 17 5 21 -32 51 -53 43 -10 -4 -14 3 -14 25 0 40 -23 58 -58
46 -46 -16 -38 -84 9 -84 13 0 19 -7 19 -23 0 -27 28 -57 53 -57 10 0 17 -8
17 -20 0 -24 34 -43 65 -38 14 3 22 1 19 -6 -4 -13 4 -25 29 -45 13 -11 20
-11 32 -1 16 14 35 6 35 -16 0 -21 68 -24 81 -3 3 6 9 -1 13 -15 5 -22 12 -26
41 -26 27 0 35 4 35 18 1 16 1 16 13 0 22 -28 63 -33 80 -8 13 19 16 19 30 5
21 -20 40 -19 61 4 13 15 26 18 51 14 28 -4 36 -1 50 21 15 22 20 24 38 14 17
-9 24 -7 39 12 10 12 18 28 18 35 0 8 12 12 31 11 26 -1 35 5 48 30 9 17 28
36 44 42 20 8 27 17 27 36 0 19 5 26 19 26 21 0 36 31 32 65 -1 13 7 24 21 30
18 8 23 18 21 44 -1 21 6 40 18 52 23 23 25 57 4 65 -13 5 -12 9 5 24 11 9 20
28 20 41 0 14 11 32 26 43 l26 18 -16 -29 c-17 -35 -16 -57 7 -83 15 -18 14
-19 -6 -22 -31 -4 -46 -51 -24 -76 16 -18 16 -19 -8 -30 -35 -16 -47 -51 -29
-79 13 -21 13 -23 -8 -23 -38 0 -52 -16 -51 -54 1 -31 -2 -36 -23 -36 -27 0
-48 -32 -42 -64 4 -19 1 -21 -24 -18 -38 6 -71 -23 -63 -56 5 -20 3 -22 -14
-13 -33 18 -49 13 -75 -25 -14 -21 -27 -31 -31 -25 -17 29 -66 5 -84 -41 -7
-15 -10 -18 -10 -7 -2 36 -85 33 -95 -4 l-5 -21 -24 22 c-29 27 -45 28 -73 1
l-22 -21 -7 21 c-9 28 -79 30 -90 4 -6 -16 -9 -14 -21 10 -18 33 -78 42 -96
14 -5 -7 -8 0 -8 15 0 34 -52 67 -75 48 -10 -9 -15 -5 -20 19 -8 37 -56 61
-81 40 -13 -11 -14 -9 -8 15 8 35 -29 80 -61 72 -19 -5 -20 -2 -17 28 3 28 -1
37 -21 51 -29 19 -59 9 -77 -25 -17 -32 13 -80 50 -80 27 0 29 -2 18 -19 -9
-15 -8 -24 6 -46 14 -21 24 -26 47 -23 26 4 29 2 29 -22 0 -46 58 -77 89 -47
10 10 12 8 9 -8 -6 -32 31 -66 65 -61 16 3 32 7 35 10 3 4 11 -7 18 -24 10
-24 19 -30 42 -30 16 0 35 7 42 15 11 14 14 13 24 -6 19 -39 43 -46 78 -26 30
17 32 17 53 -3 28 -27 47 -25 76 6 19 20 25 22 34 11 27 -36 95 -18 95 27 1
19 2 19 11 4 13 -23 89 -26 89 -3 0 8 4 15 10 15 5 0 7 7 4 15 -7 18 7 20 23
4 30 -30 93 24 77 65 -5 13 -1 13 25 3 42 -16 65 0 69 45 3 30 6 34 25 31 35
-7 61 19 60 61 -1 20 2 34 7 31 4 -2 22 1 39 8 31 11 33 14 28 50 -5 33 -2 39
18 47 13 5 26 18 30 29 8 26 -2 61 -18 61 -7 0 3 8 21 17 43 21 52 56 21 89
-18 20 -19 24 -6 24 37 0 49 68 17 100 -11 11 -15 20 -10 20 21 0 34 48 21 76
-13 30 -25 204 -13 204 25 -1 32 -17 21 -49 -10 -28 -9 -36 9 -59 11 -15 25
-26 31 -24 16 3 14 -6 -10 -40 -21 -29 -21 -30 -3 -64 11 -21 26 -34 39 -35
14 0 16 -2 5 -6 -23 -8 -50 -46 -50 -70 0 -13 8 -31 18 -40 16 -17 16 -19 -10
-46 -16 -15 -28 -35 -28 -45 0 -37 13 -61 34 -65 15 -3 12 -5 -10 -6 -17 0
-38 -9 -47 -19 -23 -25 -22 -88 1 -102 16 -10 15 -10 -3 -9 -58 4 -77 -15 -77
-77 0 -30 -3 -34 -27 -34 -54 0 -77 -56 -45 -105 12 -18 25 -25 49 -25 41 0
65 27 65 73 0 31 4 37 20 37 27 0 70 47 70 76 0 13 -4 24 -10 24 -5 0 -10 7
-10 15 0 8 9 15 20 15 26 0 60 34 60 62 0 12 -7 30 -17 40 -9 10 -14 19 -12
21 2 1 18 9 34 17 42 22 47 74 11 105 l-26 22 29 6 c23 5 31 13 36 38 8 37 -9
76 -39 85 -20 7 -19 8 7 16 16 6 29 19 33 34 8 32 -13 82 -38 90 -17 5 -18 8
-5 22 39 45 18 112 -35 115 l-27 2 21 22 c16 17 19 29 14 56 -7 40 -43 60 -89
52 -21 -4 -29 -1 -35 14 -10 28 -92 96 -131 109 -33 12 -195 15 -236 5z m180
-123 c4 -6 10 -8 15 -5 4 3 18 -4 31 -14 22 -17 24 -27 25 -120 1 -58 -2 -99
-7 -95 -5 3 -9 20 -9 38 0 39 -15 56 -52 56 -21 0 -29 -6 -34 -25 -8 -32 1
-56 25 -62 13 -3 17 -11 13 -29 -5 -26 -6 -27 -39 -18 -18 5 -20 10 -13 29 12
31 -9 58 -41 53 -19 -2 -25 -10 -27 -35 -2 -25 1 -33 12 -33 12 0 16 -10 16
-34 0 -19 5 -38 10 -41 18 -11 10 -25 -15 -25 -23 0 -24 2 -13 21 11 17 10 22
-4 33 -11 8 -18 26 -18 45 0 25 -4 31 -21 31 -31 0 -51 -29 -33 -48 8 -7 14
-24 14 -37 0 -13 8 -29 18 -34 11 -7 12 -11 4 -11 -8 0 -27 13 -43 29 -29 29
-29 30 -29 153 0 123 0 125 27 149 16 13 35 27 43 31 24 11 138 9 145 -2z m24
-342 c-11 -20 -11 -20 -33 -12 -19 7 -20 20 -4 38 19 20 50 -2 37 -26z m-99
-167 c-14 -27 -13 -58 3 -64 6 -3 2 -6 -10 -6 -13 -1 -23 -7 -24 -13 0 -7 -5
-2 -10 11 -7 18 -6 26 7 36 11 8 15 20 11 34 -4 16 -1 21 14 21 16 0 18 -3 9
-19z m-37 -115 c3 -8 -5 -24 -19 -37 -13 -12 -24 -27 -24 -33 0 -6 -9 -17 -20
-24 -11 -7 -20 -21 -20 -32 0 -12 -5 -17 -14 -14 -14 5 -46 -20 -46 -37 0 -5
-10 -9 -23 -9 -12 0 -28 -9 -35 -21 -8 -12 -19 -18 -28 -15 -20 8 -44 -3 -44
-20 0 -17 -17 -18 -22 -2 -4 10 -11 10 -34 -1 -59 -28 -149 -16 -123 16 10 11
15 11 34 -1 19 -13 25 -13 34 -2 6 7 22 11 36 8 14 -2 31 0 38 6 7 6 22 9 34
6 14 -4 25 1 35 15 8 12 17 18 21 15 9 -10 47 6 44 19 -1 7 7 12 18 12 11 0
25 10 31 23 6 13 14 22 16 20 10 -6 38 25 38 42 0 10 9 20 20 23 11 3 20 14
20 24 0 32 23 45 33 19z"/>
<path d="M532 2560 c-66 -16 -107 -77 -99 -149 4 -36 13 -52 42 -79 36 -33 40
-34 102 -30 56 4 67 8 88 34 63 76 35 191 -55 222 -18 7 -36 12 -39 11 -3 -1
-21 -5 -39 -9z"/>
<path d="M4901 2496 c-43 -32 -47 -39 -65 -98 -13 -42 -13 -51 -1 -75 8 -16
15 -33 15 -39 0 -19 66 -72 99 -79 47 -10 108 4 141 32 30 24 30 26 30 123 0
101 0 100 -46 139 -8 7 -43 16 -77 18 -55 4 -66 2 -96 -21z"/>
<path d="M175 2486 c-72 -34 -99 -79 -93 -154 5 -69 32 -110 89 -136 64 -29
135 -13 187 41 46 50 47 168 1 214 -20 20 -101 59 -122 59 -7 0 -34 -11 -62
-24z"/>
<path d="M4588 2442 c-70 -32 -100 -132 -58 -192 26 -36 80 -70 113 -70 14 0
43 10 66 22 95 51 89 193 -11 242 -38 20 -62 19 -110 -2z"/>
<path d="M299 2167 c-77 -42 -111 -116 -90 -193 13 -48 17 -52 63 -87 68 -50
175 -30 224 42 34 51 33 119 -3 177 -15 23 -39 48 -52 54 -42 19 -113 23 -142
7z"/>
<path d="M1323 2148 c-91 -64 -13 -196 94 -161 28 10 61 54 62 85 1 27 -38 85
-62 92 -39 10 -62 6 -94 -16z"/>
<path d="M4080 2163 c-30 -13 -49 -48 -50 -90 0 -24 4 -43 9 -43 5 0 11 -9 14
-19 6 -25 76 -38 108 -20 88 47 71 161 -26 173 -22 3 -47 3 -55 -1z"/>
<path d="M4925 2155 c-45 -21 -60 -37 -73 -74 -26 -75 -11 -144 43 -193 26
-24 38 -27 97 -28 46 0 71 5 82 15 8 8 19 15 24 15 6 0 13 7 16 16 9 22 7 207
-2 220 -30 43 -125 58 -187 29z"/>
<path d="M4576 2142 c-26 -15 -66 -86 -66 -116 0 -18 37 -91 52 -103 43 -35
139 -32 181 5 21 19 47 76 47 104 0 33 -39 97 -70 113 -39 20 -108 19 -144 -3z"/>
<path d="M728 2011 c-48 -50 -54 -146 -12 -193 53 -59 142 -58 199 1 46 47 50
108 12 167 -28 42 -55 54 -120 54 -44 0 -56 -4 -79 -29z"/>
<path d="M1153 1990 c-33 -13 -56 -56 -57 -105 -1 -37 4 -50 31 -76 27 -28 37
-32 81 -31 67 2 103 36 110 102 4 41 0 50 -29 83 -28 32 -39 37 -73 36 -23 0
-51 -4 -63 -9z"/>
<path d="M4049 1959 c-46 -17 -63 -84 -34 -138 17 -33 33 -41 84 -41 53 0 86
37 86 96 0 72 -62 110 -136 83z"/>
<path d="M4280 1903 c-65 -33 -72 -129 -14 -184 47 -44 152 -22 175 38 40 107
-60 198 -161 146z"/>
<path d="M475 1866 c-16 -8 -43 -28 -60 -45 -27 -30 -30 -38 -29 -100 0 -77
16 -107 75 -140 70 -40 165 -19 209 47 20 30 25 49 25 99 0 57 -3 65 -35 98
-50 52 -124 68 -185 41z"/>
<path d="M4533 1857 c-36 -18 -67 -89 -59 -133 10 -50 29 -76 75 -102 79 -45
166 2 195 104 8 27 -21 92 -54 121 -20 18 -36 23 -80 22 -30 -1 -65 -6 -77
-12z"/>
<path d="M4875 1816 c-63 -28 -102 -106 -90 -177 9 -52 71 -115 121 -125 82
-15 159 25 189 99 20 50 14 94 -21 149 -40 62 -127 86 -199 54z"/>
<path d="M950 1812 c-108 -49 -103 -211 8 -253 36 -14 110 0 134 25 73 77 59
177 -32 226 -21 11 -87 12 -110 2z"/>
<path d="M4003 1773 c-34 -7 -76 -68 -68 -101 11 -49 38 -74 88 -79 39 -5 49
-2 71 20 36 36 42 71 20 113 -21 39 -61 56 -111 47z"/>
<path d="M2168 1730 c-25 -15 -33 -66 -14 -95 12 -18 25 -25 50 -25 32 0 33
-1 32 -42 -1 -35 3 -44 26 -57 22 -13 33 -14 58 -4 26 10 30 10 20 -2 -7 -8
-9 -27 -5 -49 6 -28 13 -36 36 -41 16 -4 44 -4 62 -1 17 3 27 3 20 0 -16 -7 3
-61 27 -74 29 -16 68 -12 79 8 7 11 10 12 11 4 0 -8 9 -27 21 -43 15 -22 28
-29 53 -29 19 0 39 7 46 16 12 13 16 11 33 -15 10 -17 22 -31 25 -32 4 0 17
-2 30 -5 16 -3 31 4 48 23 13 14 25 24 27 22 1 -2 7 -13 13 -24 8 -14 23 -21
52 -23 37 -3 43 0 54 22 14 31 19 32 36 6 25 -41 112 -15 112 33 0 18 16 23
22 7 2 -5 18 -14 36 -20 30 -8 37 -6 59 16 20 20 24 32 19 56 -8 42 -33 60
-75 54 -39 -6 -50 -19 -51 -61 -1 -28 -2 -28 -10 -8 -18 44 -97 44 -118 1
l-13 -28 -23 27 c-22 25 -27 26 -62 18 -28 -7 -40 -17 -45 -35 -4 -14 -7 -20
-8 -14 -2 22 -51 64 -74 64 -13 0 -33 -9 -45 -20 -15 -14 -22 -17 -22 -7 0 24
-40 57 -70 57 -16 0 -32 -5 -35 -10 -4 -6 -16 4 -29 22 -17 26 -30 34 -60 36
-24 2 -42 -2 -47 -10 -6 -8 -9 0 -9 23 0 46 -28 73 -70 67 -26 -4 -30 -2 -30
19 0 42 -28 73 -66 73 -31 0 -33 2 -25 23 22 59 -44 109 -101 77z"/>
<path d="M4220 1683 c-8 -3 -28 -19 -44 -37 -24 -27 -27 -37 -24 -77 8 -78 64
-120 142 -105 45 9 90 77 81 125 -14 75 -85 119 -155 94z"/>
<path d="M2031 1653 c-17 -9 -37 -25 -42 -36 -16 -29 -2 -85 26 -103 32 -21
89 -11 110 19 20 29 19 81 -2 98 -43 34 -58 38 -92 22z"/>
<path d="M707 1606 c-105 -38 -139 -176 -63 -259 90 -99 257 -49 273 82 3 27
3 60 0 73 -9 35 -57 84 -101 102 -46 19 -59 19 -109 2z"/>
<path d="M3875 1569 c-27 -24 -35 -39 -35 -64 0 -64 60 -105 131 -90 24 6 35
16 50 50 18 40 18 45 3 75 -16 30 -64 60 -98 60 -9 0 -31 -14 -51 -31z"/>
<path d="M4448 1583 c-30 -19 -68 -84 -68 -118 0 -30 20 -68 54 -101 38 -39
112 -45 155 -13 40 29 71 82 70 117 -2 95 -130 165 -211 115z"/>
<path d="M1828 1540 c-48 -37 -45 -120 6 -151 44 -27 79 -24 115 10 86 80 -29
214 -121 141z"/>
<path d="M3414 1549 c-10 -3 -28 -16 -39 -28 -16 -18 -17 -25 -7 -39 7 -9 15
-24 18 -34 14 -39 86 -31 104 13 24 57 -21 109 -76 88z"/>
<path d="M2115 1506 c-32 -28 -41 -68 -21 -89 9 -8 16 -20 16 -26 0 -17 69
-25 95 -11 28 15 45 56 38 94 -6 31 -14 37 -66 46 -32 6 -43 4 -62 -14z"/>
<path d="M4760 1483 c-14 -9 -37 -31 -52 -48 -24 -26 -28 -39 -28 -91 0 -51 4
-67 28 -97 33 -44 62 -57 127 -58 90 -2 136 33 155 114 15 69 0 117 -52 161
-37 32 -48 36 -98 36 -36 0 -64 -6 -80 -17z"/>
<path d="M3283 1468 c-39 -19 -38 -75 3 -115 20 -21 48 -15 78 16 37 39 30 84
-16 100 -36 13 -36 13 -65 -1z"/>
<path d="M4094 1459 c-12 -6 -32 -31 -44 -55 -20 -39 -21 -47 -10 -76 28 -71
73 -96 139 -78 31 8 48 21 67 50 31 46 28 87 -10 134 -19 23 -33 29 -72 32
-27 2 -59 -1 -70 -7z"/>
<path d="M3777 1426 c-57 -25 -73 -102 -32 -148 19 -22 33 -28 70 -30 40 -1
50 3 70 28 33 39 33 93 0 128 -13 14 -31 26 -39 26 -8 0 -20 2 -28 4 -7 2 -26
-1 -41 -8z"/>
<path d="M1624 1416 c-45 -20 -69 -93 -47 -146 44 -106 203 -84 218 31 5 39
-29 103 -63 119 -31 14 -70 12 -108 -4z"/>
<path d="M2236 1390 c-34 -39 -33 -70 3 -109 33 -35 44 -37 85 -16 15 8 29 15
30 15 1 0 1 -12 0 -27 0 -16 8 -40 19 -55 44 -59 137 -23 137 53 0 19 -4 39
-8 45 -18 27 -74 37 -114 19 -15 -6 -18 -2 -18 23 0 41 -28 72 -71 77 -30 4
-40 0 -63 -25z"/>
<path d="M1977 1396 c-45 -24 -57 -42 -57 -85 0 -49 46 -101 89 -101 26 0 75
29 93 55 17 24 8 75 -19 104 -34 37 -69 46 -106 27z"/>
<path d="M4320 1322 c-62 -34 -86 -109 -54 -174 24 -50 60 -72 119 -72 63 0
98 24 121 81 22 56 3 137 -39 162 -35 22 -109 24 -147 3z"/>
<path d="M1385 1280 c-92 -38 -98 -186 -8 -241 90 -56 216 28 199 133 -15 91
-107 143 -191 108z"/>
<path d="M3599 1259 c-38 -41 -38 -81 0 -120 45 -44 126 -40 149 9 35 74 -3
142 -80 142 -32 0 -46 -6 -69 -31z"/>
<path d="M3943 1259 c-18 -12 -33 -27 -33 -35 0 -8 -4 -14 -10 -14 -5 0 -10
-20 -10 -43 0 -124 177 -159 217 -43 37 109 -69 196 -164 135z"/>
<path d="M2094 1235 c-22 -25 -25 -36 -21 -73 9 -80 91 -108 158 -53 19 15 24
29 24 66 0 40 -4 50 -30 71 -42 34 -96 29 -131 -11z"/>
<path d="M2580 1263 c-41 -12 -60 -28 -66 -57 -8 -44 10 -82 43 -93 34 -12 93
2 93 21 0 8 6 16 14 19 9 4 12 0 9 -12 -2 -9 6 -29 18 -44 19 -25 27 -28 68
-25 37 2 48 8 56 26 9 21 25 30 25 14 0 -5 9 -18 20 -30 43 -46 139 -18 141
41 0 14 2 17 6 7 12 -33 47 -60 77 -60 48 1 76 30 76 80 0 51 -28 79 -80 80
-36 0 -57 -20 -71 -65 -5 -18 -7 -18 -19 7 -16 33 -40 42 -86 33 -24 -4 -39
-14 -46 -31 -13 -27 -28 -32 -28 -9 0 22 -49 65 -74 65 -12 0 -36 -13 -54 -29
-31 -29 -32 -29 -32 -7 0 32 -59 77 -90 69z"/>
<path d="M1754 1206 c-35 -32 -37 -36 -32 -84 3 -29 12 -58 24 -70 45 -48 123
-50 169 -5 21 21 25 35 25 80 0 48 -4 57 -32 84 -47 43 -104 41 -154 -5z"/>
<path d="M4589 1164 c-21 -14 -46 -46 -59 -73 -22 -47 -22 -50 -6 -98 9 -27
30 -63 47 -79 26 -24 39 -29 99 -32 59 -4 73 -1 100 18 17 12 39 39 50 60 21
40 27 105 11 114 -5 3 -12 18 -16 33 -3 15 -21 40 -38 55 -27 23 -42 27 -92
28 -49 0 -67 -5 -96 -26z"/>
<path d="M3453 1168 c-29 -14 -56 -72 -47 -101 11 -38 55 -77 87 -77 37 0 82
27 96 57 18 39 13 69 -18 102 -31 33 -74 40 -118 19z"/>
<path d="M2269 1131 c-75 -76 11 -192 111 -151 34 14 57 71 46 114 -17 69
-104 90 -157 37z"/>
<path d="M1145 1133 c-96 -20 -157 -106 -139 -197 6 -37 49 -96 69 -96 7 0 18
-7 25 -15 17 -21 83 -19 128 4 64 33 85 64 90 131 4 53 1 65 -23 99 -34 51
-103 84 -150 74z"/>
<path d="M3775 1099 c-30 -15 -65 -71 -65 -105 0 -36 44 -104 68 -105 9 0 28
-2 42 -4 72 -8 141 72 117 138 -4 9 -9 24 -12 32 -12 40 -103 67 -150 44z"/>
<path d="M4164 1104 c-28 -7 -69 -51 -82 -91 -14 -42 0 -94 38 -136 25 -29 33
-32 87 -32 55 0 62 3 95 37 62 61 61 133 -2 193 -29 27 -86 40 -136 29z"/>
<path d="M3281 1093 c-43 -17 -66 -67 -56 -119 5 -28 14 -38 50 -55 43 -20 43
-20 82 -1 51 26 71 77 49 121 -27 51 -77 73 -125 54z"/>
<path d="M2485 1074 c-43 -23 -55 -42 -55 -89 0 -111 161 -126 183 -16 9 45
-17 95 -57 109 -39 14 -34 15 -71 -4z"/>
<path d="M1965 1066 c-17 -7 -39 -25 -48 -39 -18 -28 -23 -107 -7 -107 6 0 10
-6 10 -13 0 -24 57 -57 99 -57 63 0 115 59 108 123 -6 49 -34 85 -76 97 -45
12 -49 12 -86 -4z"/>
<path d="M1585 1060 c-65 -20 -108 -98 -91 -164 4 -15 22 -42 41 -62 35 -35
37 -36 99 -32 55 3 67 8 89 33 52 59 48 145 -9 194 -19 17 -40 31 -47 31 -7 0
-21 2 -32 4 -11 3 -34 1 -50 -4z"/>
<path d="M3105 1041 c-73 -21 -100 -103 -51 -155 68 -75 179 -12 160 90 -8 46
-62 78 -109 65z"/>
<path d="M2664 1022 c-40 -27 -46 -111 -9 -147 45 -46 155 -20 155 36 0 10 5
19 10 19 6 0 10 -11 10 -25 0 -14 5 -25 10 -25 6 0 10 -7 10 -15 0 -8 16 -19
40 -25 46 -12 110 8 110 34 0 9 5 16 10 16 6 0 10 15 10 34 0 82 -104 127
-164 71 -14 -13 -26 -31 -26 -40 0 -27 -17 -16 -24 16 -3 18 -14 38 -24 45
-18 14 -100 19 -118 6z"/>
<path d="M3552 945 c-41 -34 -49 -82 -23 -140 19 -44 25 -48 83 -58 2 0 21 3
43 6 50 8 85 54 85 111 0 30 -7 45 -34 72 -29 29 -41 34 -79 34 -34 0 -53 -6
-75 -25z"/>
<path d="M2188 942 c-42 -5 -78 -55 -78 -108 0 -38 5 -50 35 -79 29 -29 41
-35 77 -35 66 1 101 36 106 109 3 51 1 58 -25 82 -29 27 -68 38 -115 31z"/>
<path d="M4401 897 c-66 -33 -86 -66 -86 -141 0 -71 18 -106 68 -136 52 -32
90 -35 144 -10 73 33 98 71 98 145 0 71 -26 115 -87 146 -48 24 -82 23 -137
-4z"/>
<path d="M3954 899 c-47 -13 -84 -68 -84 -123 0 -62 15 -90 62 -115 49 -26 88
-27 136 -2 47 24 67 60 67 120 0 57 -30 99 -83 118 -42 14 -55 15 -98 2z"/>
<path d="M1781 855 c-61 -35 -70 -51 -71 -117 0 -73 32 -113 102 -126 82 -16
149 23 163 95 12 67 -16 122 -79 153 -54 26 -62 25 -115 -5z"/>
<path d="M1322 849 c-52 -23 -78 -51 -92 -101 -17 -60 -2 -116 41 -159 68 -67
164 -62 236 13 25 27 28 36 28 101 0 67 -3 74 -32 105 -28 29 -98 63 -127 61
-6 0 -31 -9 -54 -20z"/>
<path d="M3350 855 c-7 -8 -18 -15 -25 -15 -12 0 -35 -62 -35 -93 0 -33 25
-69 62 -88 56 -29 82 -25 128 21 33 33 40 47 40 80 0 32 -7 46 -35 75 -30 29
-43 35 -79 35 -27 0 -48 -6 -56 -15z"/>
<path d="M2364 819 c-24 -25 -29 -39 -29 -80 0 -44 4 -54 33 -80 64 -58 169
-29 187 51 17 78 -33 140 -114 140 -40 0 -52 -5 -77 -31z"/>
<path d="M3126 795 c-21 -7 -38 -15 -39 -17 -1 -1 -10 -18 -19 -36 -23 -43
-22 -53 3 -99 28 -52 45 -63 97 -63 40 0 50 5 84 40 37 40 50 82 28 95 -5 3
-10 14 -10 24 0 45 -82 77 -144 56z"/>
<path d="M2635 786 c-63 -27 -83 -101 -45 -164 46 -75 152 -68 195 12 23 42
35 46 35 10 0 -31 46 -80 84 -90 35 -8 109 29 125 62 22 48 7 111 -34 146 -33
28 -107 24 -144 -9 -18 -16 -31 -37 -31 -50 0 -13 -4 -23 -10 -23 -5 0 -10 9
-10 20 0 10 -17 37 -38 60 -42 44 -72 50 -127 26z"/>
<path d="M3725 743 c-63 -16 -112 -89 -100 -150 13 -72 61 -113 130 -113 83 0
135 51 135 132 0 91 -77 153 -165 131z"/>
<path d="M2051 713 c-35 -7 -77 -49 -91 -93 -11 -34 -11 -45 4 -84 22 -57 66
-86 130 -86 38 0 52 6 82 33 45 41 62 105 40 151 -27 58 -99 92 -165 79z"/>
<path d="M4105 624 c-42 -44 -45 -52 -45 -101 0 -61 15 -97 57 -133 24 -22 37
-25 103 -25 61 0 79 4 98 20 72 61 76 182 10 248 -26 27 -38 31 -104 35 l-74
5 -45 -49z"/>
<path d="M1570 617 c-68 -33 -100 -109 -81 -191 16 -69 28 -75 148 -76 108 0
133 5 133 25 0 7 5 15 12 17 6 2 13 29 16 59 5 63 -9 97 -57 143 -26 25 -41
30 -88 33 -32 1 -69 -3 -83 -10z"/>
<path d="M3424 601 c-113 -69 -62 -243 70 -243 71 0 114 33 135 104 13 43 -1
81 -47 131 -22 23 -34 27 -76 27 -33 0 -62 -7 -82 -19z"/>
<path d="M2325 601 c-68 -23 -92 -51 -96 -111 -4 -54 2 -78 29 -108 27 -30 33
-32 98 -32 80 0 94 7 124 67 18 36 20 46 10 80 -15 50 -28 67 -73 92 -39 22
-57 24 -92 12z"/>
<path d="M3155 531 c-61 -37 -81 -77 -70 -141 l7 -40 123 0 c136 0 135 0 135
68 0 97 -114 164 -195 113z"/>
<path d="M2595 533 c-54 -13 -104 -101 -89 -158 l6 -25 130 0 130 0 -4 59 c-3
48 -10 65 -30 86 -37 37 -90 51 -143 38z"/>
<path d="M2861 501 c-40 -21 -70 -72 -71 -118 l0 -33 135 0 c132 0 135 0 140
23 4 14 -3 40 -17 68 -38 72 -116 98 -187 60z"/>
<path d="M3849 458 c-37 -20 -69 -64 -69 -92 0 -14 20 -16 156 -16 l155 0 -7
23 c-30 94 -144 136 -235 85z"/>
<path d="M1875 436 c-35 -16 -85 -60 -85 -76 0 -6 49 -10 141 -10 l140 0 -7
23 c-3 12 -7 22 -8 22 0 0 -16 11 -35 24 -41 29 -105 36 -146 17z"/>
</g>
</svg>
